<?xml version="1.0" encoding="UTF-8" standalone="no"?>
<svg
   width="128"
   height="128"
   version="1.1"
   id="svg6"
   sodipodi:docname="Flora-papirus.svg"
   inkscape:version="1.4.2 (ebf0e940d0, 2025-05-08)"
   inkscape:export-filename="com.github.cadmiumcmyk.Flora.png"
   inkscape:export-xdpi="294"
   inkscape:export-ydpi="294"
   xmlns:inkscape="http://www.inkscape.org/namespaces/inkscape"
   xmlns:sodipodi="http://sodipodi.sourceforge.net/DTD/sodipodi-0.dtd"
   xmlns="http://www.w3.org/2000/svg"
   xmlns:svg="http://www.w3.org/2000/svg">
  <defs
     id="defs6" />
  <sodipodi:namedview
     id="namedview6"
     pagecolor="#ffffff"
     bordercolor="#000000"
     borderopacity="0.25"
     inkscape:showpageshadow="2"
     inkscape:pageopacity="0.0"
     inkscape:pagecheckerboard="0"
     inkscape:deskcolor="#d1d1d1"
     inkscape:zoom="4.8779319"
     inkscape:cx="-33.210796"
     inkscape:cy="52.58376"
     inkscape:window-width="1920"
     inkscape:window-height="1012"
     inkscape:window-x="0"
     inkscape:window-y="0"
     inkscape:window-maximized="1"
     inkscape:current-layer="svg6">
    <inkscape:page
       x="0"
       y="0"
       width="128"
       height="128"
       id="page2"
       margin="0"
       bleed="0" />
  </sodipodi:namedview>
  <path
     style="opacity:0.2;stroke-width:1"
     d="m 17.709054,112.04996 v 4.19391 c 0,3.48514 2.805727,6.29087 6.290868,6.29087 h 79.684328 c 3.48514,0 6.29087,-2.80573 6.29087,-6.29087 v -4.19391 c 0,3.48514 -2.80573,6.29087 -6.29087,6.29087 H 23.999922 c -3.485141,0 -6.290868,-2.80573 -6.290868,-6.29087 z"
     id="path1" />
  <path
     style="fill:#26a269;stroke-width:1"
     d="m 23.999922,3.008239 c -3.485141,0 -6.290868,2.8057273 -6.290868,6.290868 V 114.14691 c 0,3.48514 2.805727,6.29087 6.290868,6.29087 h 79.684328 c 3.48514,0 6.29087,-2.80573 6.29087,-6.29087 V 9.299107 c 0,-3.4851407 -2.80573,-6.290868 -6.29087,-6.290868 z"
     id="path2" />
  <path
     style="opacity:0.298097;stroke-width:1"
     d="m 23.999922,3.008239 c -3.485141,0 -6.290868,2.8057273 -6.290868,6.290868 V 114.14691 c 0,3.48514 2.805727,6.29087 6.290868,6.29087 H 34.484703 V 3.008239 Z"
     id="path3" />
  <path
     style="opacity:0.2;stroke-width:1"
     d="M 76.663348,5.2386097 V 63.953381 l 8.387824,-8.387825 8.387824,8.387825 V 5.2386097 Z"
     id="path4" />
  <path
     style="fill:#e66100;fill-opacity:1;stroke-width:1"
     d="M 76.663348,3.008239 V 61.72301 l 8.387824,-8.387825 8.387824,8.387825 V 3.008239 Z"
     id="path5" />
  <path
     style="opacity:0.2;fill:#ffffff;stroke-width:1"
     d="m 23.999922,3.008239 c -3.485141,0 -6.290868,2.8057273 -6.290868,6.290868 v 2.096956 c 0,-3.4851406 2.805727,-6.2908679 6.290868,-6.2908679 h 79.684328 c 3.48514,0 6.29087,2.8057273 6.29087,6.2908679 V 9.299107 c 0,-3.4851407 -2.80573,-6.290868 -6.29087,-6.290868 z"
     id="path6" />
  <rect
     width="78.297447"
     height="68.874207"
     x="22.066828"
     y="37.621075"
     id="canvas"
     style="visibility:hidden;fill:none;stroke:none;stroke-width:1" />
  <g
     id="g1"
     transform="matrix(-2.5976358,0,0,2.5976358,63.162815,-31.541143)"
     style="stroke-width:0.384966">
    <path
       style="opacity:0.1;stroke-width:0.384966"
       d="m 12.718062,21.189499 c 0,0 -9.5090449,5.157725 -12.78722074,9.256023 -2.43955096,3.049915 -4.77112906,6.82984 -4.63062786,10.797782 0.1079066,3.048608 4.14634306,8.322349 4.14634306,8.322349 l -3.08771216,7.198222 1.8461667,0.835529 3.0877131,-7.19822 c 0,0 6.5134293,-0.499758 8.7762709,-2.475375 2.945408,-2.571953 4.086922,-6.89058 4.631329,-10.797845 0.731166,-5.250319 -1.982262,-15.938465 -1.982262,-15.938465 z"
       id="path15" />
    <path
       style="fill:#8ff0a4;stroke-width:0.384966"
       d="m 13.358892,20.392151 c 0,0 -9.5090446,5.157726 -12.78722014,9.256024 -2.43955096,3.049914 -4.77112906,6.829839 -4.63062786,10.797781 0.1079066,3.048609 4.14634306,8.322349 4.14634306,8.322349 l -3.08771216,7.198223 1.8461667,0.835529 3.0877131,-7.198221 c 0,0 6.5134297,-0.499757 8.7762703,-2.475374 2.945409,-2.571954 4.086923,-6.89058 4.63133,-10.797845 0.731166,-5.250319 -1.982263,-15.938466 -1.982263,-15.938466 z"
       id="path16" />
    <path
       style="opacity:0.2;stroke-width:0.384966"
       d="m -3.0392466,55.96469 1.8464743,0.835146 5.4026347,-12.597434 6.5446896,-2.410596 -0.537434,-1.317559 -5.2355556,1.928885 1.544009,-3.599302 5.2355576,-1.928884 -0.537433,-1.317559 -3.9268206,1.446853 1.157809,-2.699636 3.9269116,-1.446154 -0.537127,-1.317939 -2.6180836,0.964823 2.6620186,-6.302115 -1.846168,-0.835528 -2.6620206,6.302115 -1.074165,-2.635178 -1.309042,0.482411 1.611903,3.952356 -1.157811,2.699636 -1.611596,-3.952737 -1.3090429,0.482411 2.1486349,5.269976 -1.5437047,3.598922 -2.14863444,-5.269977 -1.3090444,0.482412 2.68637594,6.587154 z"
       id="path17" />
  </g>
</svg>
