<?xml version="1.0" encoding="UTF-8" standalone="no"?>
<svg
   width="500"
   height="500"
   version="1.1"
   id="svg6"
   sodipodi:docname="flora-flowers.svg"
   inkscape:version="1.4.2 (ebf0e940d0, 2025-05-08)"
   xmlns:inkscape="http://www.inkscape.org/namespaces/inkscape"
   xmlns:sodipodi="http://sodipodi.sourceforge.net/DTD/sodipodi-0.dtd"
   xmlns="http://www.w3.org/2000/svg"
   xmlns:svg="http://www.w3.org/2000/svg">
  <defs
     id="defs6" />
  <sodipodi:namedview
     id="namedview6"
     pagecolor="#ffffff"
     bordercolor="#000000"
     borderopacity="0.25"
     inkscape:showpageshadow="2"
     inkscape:pageopacity="0.0"
     inkscape:pagecheckerboard="0"
     inkscape:deskcolor="#d1d1d1"
     inkscape:zoom="0.86230468"
     inkscape:cx="163.51529"
     inkscape:cy="363.56059"
     inkscape:window-width="1920"
     inkscape:window-height="1012"
     inkscape:window-x="0"
     inkscape:window-y="0"
     inkscape:window-maximized="1"
     inkscape:current-layer="svg6">
    <inkscape:page
       x="0"
       y="0"
       width="500"
       height="500"
       id="page2"
       margin="0"
       bleed="0" />
  </sodipodi:namedview>
  <path
     style="fill:#2ec27e;stroke-width:0.999998"
     d="m 29.9373,-8.9014722 c -19.3973,0 -35.0131783,13.3806671 -35.0131783,30.0014962 V 521.12497 c 0,16.62083 15.6158783,30.0015 35.0131783,30.0015 h 443.50027 c 19.3973,0 35.01317,-13.38067 35.01317,-30.0015 V 21.100024 c 0,-16.6208291 -15.61587,-30.0014962 -35.01317,-30.0014962 z"
     id="path2" />
  <g
     id="g8"
     style="mix-blend-mode:normal;fill:#1f7f53;fill-opacity:1;stroke-width:0.0995685"
     transform="matrix(10.043308,0,0,10.043308,-114.0043,-87.588055)">
    <path
       fill="#00B89C"
       d="m 47.955658,44.103012 c -0.84431,0.09369 -2.16451,0.265177 -2.96099,0.493011 0.20209,-0.05877 0.28727,-0.08378 -0.0346,0.009 -1.33527,0.38818 -0.48047,0.140689 -0.0226,0.0077 -2.74945,0.805188 -5.85815,2.802709 -7.48313,5.438615 a 6.7183768,6.7183768 0 0 0 -0.28737,0.520909 V 31.922424 c 0,-0.509961 -0.41344,-0.923413 -0.9234,-0.923413 -0.50996,0 -0.92342,0.413452 -0.92342,0.923413 v 24.356385 c 0,0.50996 0.41346,0.923412 0.92342,0.923412 0.0462,0 0.0913,-0.0044 0.13573,-0.01104 0.13834,0.03269 0.28633,0.03949 0.4391,0.01104 1.67645,-0.311609 4.38032,-0.925003 5.92957,-1.857306 2.59677,-1.562727 4.55705,-4.61171 5.43861,-7.483123 l 0.016,-0.05159 c 0.0824,-0.286057 0.0575,-0.201152 5.5e-4,-0.0056 0.22877,-0.799474 0.39004,-2.133712 0.47588,-2.984952 0.0452,-0.446591 -0.27717,-0.766154 -0.72338,-0.71664 z"
       id="path1-7"
       style="fill:#1f7f53;fill-opacity:1;stroke-width:0.155576" />
    <path
       fill="#009E83"
       d="m 33.162948,56.721475 c 0.45586,0.139935 -1.31271,-0.380507 0.0226,0.0077 0.32191,0.09276 0.23673,0.06777 0.0346,0.009 0.79948,0.228769 2.13372,0.390052 2.98496,0.475886 0.44668,0.04504 0.76624,-0.277348 0.71673,-0.723564 -0.0937,-0.84431 -0.26518,-2.164512 -0.49302,-2.960991 0.0588,0.202088 0.0838,0.287274 -0.009,-0.03462 -0.38817,-1.335268 -0.14068,-0.480472 -0.008,-0.02258 -0.80519,-2.749446 -2.80271,-5.85815 -5.438619,-7.483124 -1.538952,-0.948778 -4.24141,-1.561236 -5.918338,-1.870319 -0.732828,-0.135069 -1.36878,0.501819 -1.232676,1.234367 0.311609,1.67646 0.924997,4.380321 1.857299,5.929573 1.562727,2.596779 4.611711,4.557044 7.483134,5.438709 z"
       id="path2-5"
       style="fill:#1f7f53;fill-opacity:1;stroke-width:0.155576" />
  </g>
  <path
     fill="#ffe564"
     d="m 392.63825,143.82406 c -12.47697,-26.51767 -44.08866,-37.89982 -70.60791,-25.42284 l -24.57705,11.56367 4.82134,-26.73011 c 1.0597,-6.001584 1.14439,-12.489975 0,-18.837531 -5.20232,-28.841639 -32.79855,-48.005612 -61.64186,-42.804136 -28.8416,5.202272 -48.00555,32.798478 -42.80408,61.641667 l 4.88968,27.10622 -24.97673,-11.61333 c -5.53684,-2.54866 -11.78837,-4.27924 -18.21974,-4.78468 -29.21769,-2.29469 -54.76345,19.52944 -57.05645,48.74715 -2.29468,29.2177 19.52946,54.76339 48.74714,57.05808 l 20.24823,1.59056 -17.18514,17.69959 c -4.00813,4.1628 -7.56042,9.20388 -10.11394,14.748 -12.24011,26.5803 -0.61374,58.04792 25.96496,70.28635 26.5803,12.24016 58.04789,0.61399 70.28633,-25.96495 l 8.73501,-18.97021 8.34021,19.14526 c 2.32971,5.28768 5.64521,10.48835 9.80631,14.95564 19.94548,21.40972 53.47085,22.59901 74.88222,2.65354 21.40983,-19.94539 22.59912,-53.47234 2.65364,-74.88211 l -18.47123,-19.82741 22.65928,-1.88362 c 6.07079,-0.52736 12.36061,-2.11963 18.19694,-4.8669 26.51768,-12.47698 37.8998,-44.08862 25.42284,-70.6079 z"
     id="path3-3"
     style="fill:#fcf8bf;fill-opacity:1;stroke-width:1.5625" />
  <ellipse
     fill="#ffb636"
     cx="250"
     cy="197.6416"
     id="circle3"
     style="fill:#f6d32d;stroke-width:1.5625"
     rx="52.607986"
     ry="52.847649" />
  <rect
     width="267.47192"
     height="235.28119"
     x="117.80544"
     y="201.758"
     id="canvas"
     style="visibility:hidden;fill:none;stroke:none;stroke-width:0.999998" />
</svg>
