<?xml version="1.0" encoding="UTF-8" standalone="no"?>
<!-- Uploaded to: SVG Repo, www.svgrepo.com, Generator: SVG Repo Mixer Tools -->

<svg
   version="1.1"
   id="Layer_1"
   viewBox="0 0 64 64"
   xml:space="preserve"
   sodipodi:docname="flower.svg"
   inkscape:version="1.4.2 (ebf0e940d0, 2025-05-08)"
   xmlns:inkscape="http://www.inkscape.org/namespaces/inkscape"
   xmlns:sodipodi="http://sodipodi.sourceforge.net/DTD/sodipodi-0.dtd"
   xmlns="http://www.w3.org/2000/svg"
   xmlns:svg="http://www.w3.org/2000/svg"><defs
   id="defs12"><filter
     style="color-interpolation-filters:sRGB;"
     inkscape:label="Drop Shadow"
     id="filter49"
     x="0"
     y="0"
     width="1"
     height="1.1275398"><feFlood
       result="flood"
       in="SourceGraphic"
       flood-opacity="0.560784"
       flood-color="rgb(255,255,255)"
       id="feFlood48" /><feGaussianBlur
       result="blur"
       in="SourceGraphic"
       stdDeviation="0.000000"
       id="feGaussianBlur48" /><feOffset
       result="offset"
       in="blur"
       dx="0.000000"
       dy="1.275398"
       id="feOffset48" /><feComposite
       result="comp1"
       operator="out"
       in="flood"
       in2="offset"
       id="feComposite48" /><feComposite
       result="comp2"
       operator="atop"
       in="comp1"
       in2="SourceGraphic"
       id="feComposite49" /></filter></defs><sodipodi:namedview
   id="namedview12"
   pagecolor="#ffffff"
   bordercolor="#000000"
   borderopacity="0.25"
   inkscape:showpageshadow="2"
   inkscape:pageopacity="0.0"
   inkscape:pagecheckerboard="0"
   inkscape:deskcolor="#d1d1d1"
   inkscape:zoom="6.8984375"
   inkscape:cx="49.431484"
   inkscape:cy="31.093998"
   inkscape:window-width="1920"
   inkscape:window-height="1012"
   inkscape:window-x="0"
   inkscape:window-y="0"
   inkscape:window-maximized="1"
   inkscape:current-layer="Layer_1" />
<style
   type="text/css"
   id="style1">
	.st0{fill:#4F5D73;}
	.st1{fill:none;stroke:#76C2AF;stroke-width:4;stroke-linecap:round;stroke-miterlimit:10;}
	.st2{opacity:0.2;fill:#231F20;}
	.st3{fill:#76C2AF;stroke:#76C2AF;stroke-width:4;stroke-linecap:round;stroke-linejoin:round;stroke-miterlimit:10;}
	.st4{fill:#C75C5C;}
	.st5{fill:#F5CF87;}
</style>














<g
   id="g1"><circle
     class="st2"
     cx="32"
     cy="25.694874"
     r="14.792429"
     id="circle5"
     style="stroke-width:1" /><path
     id="circle6"
     style="opacity:0.2;fill:#231f20;stroke-width:1"
     class="st2"
     d="M 46.792428,44.185409 A 14.792429,14.792429 0 0 1 31.999999,58.977837 14.792429,14.792429 0 0 1 17.20757,44.185409 14.792429,14.792429 0 0 1 31.999999,29.39298 14.792429,14.792429 0 0 1 46.792428,44.185409 Z M 57.88675,33.091087 A 14.792429,14.792429 0 0 1 43.094321,47.883516 14.792429,14.792429 0 0 1 28.301892,33.091087 14.792429,14.792429 0 0 1 43.094321,18.298658 14.792429,14.792429 0 0 1 57.88675,33.091087 Z m -22.188644,0 A 14.792429,14.792429 0 0 1 20.905678,47.883516 14.792429,14.792429 0 0 1 6.1132496,33.091087 14.792429,14.792429 0 0 1 20.905678,18.298658 14.792429,14.792429 0 0 1 35.698106,33.091087 Z" /><circle
     class="st4"
     cx="32"
     cy="18.298658"
     r="14.792429"
     id="circle9"
     style="stroke-width:1" /><g
     id="g50"
     transform="matrix(1.8490536,0,0,1.8490536,-27.169715,-11.2862)"
     style="stroke-width:0.540817"><circle
       class="st4"
       cx="26"
       cy="22"
       r="8"
       id="circle7"
       style="stroke-width:0.540817" /><circle
       class="st4"
       cx="38"
       cy="22"
       r="8"
       id="circle8"
       style="stroke-width:0.540817" /><circle
       class="st4"
       cx="32"
       cy="28"
       r="8"
       id="circle10"
       style="stroke-width:0.540817" /></g><circle
     class="st2"
     cx="32"
     cy="33.091087"
     r="9.2452679"
     id="circle11"
     style="stroke-width:1" /><circle
     class="st5"
     cx="32"
     cy="22"
     r="5"
     id="circle12"
     style="stroke-width:0.540817;filter:url(#filter49)"
     transform="matrix(1.8490536,0,0,1.8490536,-27.169715,-11.2862)" /></g>
</svg>
