<?xml version="1.0" encoding="UTF-8" standalone="no"?>
<svg
   height="16px"
   viewBox="0 0 16 16"
   width="16px"
   version="1.1"
   id="svg1"
   sodipodi:docname="leaf-symbolic.svg"
   inkscape:version="1.4.3 (0d15f75042, 2025-12-25)"
   xmlns:inkscape="http://www.inkscape.org/namespaces/inkscape"
   xmlns:sodipodi="http://sodipodi.sourceforge.net/DTD/sodipodi-0.dtd"
   xmlns="http://www.w3.org/2000/svg"
   xmlns:svg="http://www.w3.org/2000/svg">
  <defs
     id="defs1" />
  <sodipodi:namedview
     id="namedview1"
     pagecolor="#ffffff"
     bordercolor="#000000"
     borderopacity="0.25"
     inkscape:showpageshadow="2"
     inkscape:pageopacity="0.0"
     inkscape:pagecheckerboard="0"
     inkscape:deskcolor="#d1d1d1"
     inkscape:zoom="6.8984375"
     inkscape:cx="-20.801812"
     inkscape:cy="-11.95923"
     inkscape:window-width="1920"
     inkscape:window-height="1012"
     inkscape:window-x="0"
     inkscape:window-y="0"
     inkscape:window-maximized="1"
     inkscape:current-layer="svg1" />
  <path
     style="baseline-shift:baseline;display:inline;overflow:visible;vector-effect:none;fill:#000000;fill-opacity:1;stroke:none;stroke-width:0.999999;stroke-miterlimit:10;stroke-opacity:1;enable-background:accumulate;stop-color:#000000"
     d="m 4.507314,1.0099939 v 0.00232 3.9289086 l 1.44e-4,-0.014173 c -0.0027,0.1101917 1.44e-4,0.219428 0.0075,0.3276918 0.0026,0.039249 0.0087,0.077577 0.0126,0.1165091 0.0069,0.06856 0.01335,0.1371937 0.02412,0.2047229 0.0072,0.044943 0.01757,0.088792 0.02641,0.1332114 0.012,0.060284 0.02348,0.1206466 0.0385,0.1799206 0.01154,0.045502 0.02573,0.089874 0.039,0.1347103 0.01685,0.056957 0.03354,0.1138777 0.05313,0.169716 0.01543,0.043923 0.03295,0.086763 0.05003,0.1299263 0.02183,0.055208 0.04393,0.1101658 0.06841,0.1640778 0.01868,0.041096 0.03888,0.081224 0.05906,0.1215072 0.0272,0.054369 0.05509,0.1082132 0.08497,0.1610432 0.02121,0.037461 0.04343,0.074132 0.06595,0.1107657 0.0329,0.053613 0.06688,0.106346 0.102521,0.1581182 0.02317,0.033623 0.04684,0.066725 0.07112,0.099524 0.0387,0.052321 0.07882,0.1033664 0.120293,0.1535158 0.02492,0.030107 0.04999,0.059928 0.07587,0.089211 0.04415,0.049991 0.08995,0.098339 0.136852,0.1458433 0.02654,0.026879 0.05294,0.053748 0.08032,0.079791 0.04907,0.04666 0.09996,0.091242 0.151696,0.1351375 0.02855,0.024236 0.05668,0.048797 0.086,0.072153 0.05284,0.042064 0.107625,0.081672 0.162937,0.120792 0.03121,0.022102 0.06182,0.044857 0.09378,0.065981 0.05508,0.036361 0.112134,0.069855 0.169395,0.1032353 0.035,0.02044 0.06925,0.041847 0.105019,0.061128 0.05524,0.02972 0.112425,0.056253 0.169466,0.083145 0.04018,0.018986 0.07949,0.039319 0.120507,0.056845 0.05383,0.022949 0.109603,0.042308 0.1648631,0.062698 0.04617,0.017072 0.09141,0.035854 0.138491,0.051065 0.05088,0.016407 0.103639,0.028833 0.155585,0.043035 0.05345,0.01463 0.105991,0.031266 0.160474,0.043464 l 0.0043,0.00101 0.0066,0.00128 c 0.02558,0.00512 0.05143,0.00872 0.07711,0.013307 0.0093,0.00183 0.01874,0.00324 0.02805,0.00499 V 10.479529 C 6.8667761,10.023893 6.1606741,9.7494051 5.3934021,9.7494051 h -1.470776 v 0.8861199 c 0,1.753906 1.434297,3.188203 3.188204,3.188203 h 0.307565 v 1.166278 h 1.16321 v -1.166278 -0.88612 -0.283194 h 0.307566 c 1.7539079,0 3.1882029,-1.434296 3.1882029,-3.188203 V 8.580092 h -1.470776 c -0.76727,0 -1.473374,0.2744864 -2.0249929,0.730141 V 8.5358426 C 10.21573,8.2596383 11.498663,6.8272317 11.492718,5.0853933 V 1.0099997 H 5.08655 Z M 8.5907011,2.1732405 H 10.329504 V 4.290441 C 10.046306,3.7023768 9.666687,3.1645697 9.202513,2.7024065 9.010251,2.5105945 8.805342,2.334544 8.5907011,2.1732405 Z M 5.670524,2.2086385 C 6.6902371,2.33299 7.645877,2.7925162 8.3809831,3.5258999 l 1.44e-4,1.439e-4 1.44e-4,2.878e-4 c 0.462301,0.4601995 0.821737,1.0131517 1.054623,1.6224718 l 4.26e-4,0.00101 2.88e-4,0.00101 C 9.6399771,5.6773885 9.5623971,6.2691258 9.2301731,6.7254766 8.8998141,7.1792679 8.3646401,7.4339792 7.804503,7.4055905 7.718443,7.3973605 7.632816,7.3850835 7.548002,7.3682985 7.412514,7.3374435 7.282033,7.2956325 7.157291,7.2440448 c -0.003,-0.00128 -0.0061,-0.0022 -0.0091,-0.00342 -0.05587,-0.023364 -0.110052,-0.049532 -0.163506,-0.076757 -0.0098,-0.00496 -0.0199,-0.00932 -0.02958,-0.014417 -0.04949,-0.026059 -0.09725,-0.054555 -0.144486,-0.083788 -0.01262,-0.00781 -0.02565,-0.015051 -0.03811,-0.023087 -0.04428,-0.028556 -0.08692,-0.059179 -0.129035,-0.090425 -0.01424,-0.010575 -0.02882,-0.020742 -0.04282,-0.031616 -0.03981,-0.030924 -0.07809,-0.06356 -0.115761,-0.096813 -0.01471,-0.012993 -0.02959,-0.025775 -0.04396,-0.03911 -0.03577,-0.033169 -0.07014,-0.067699 -0.10377,-0.1029146 -0.01451,-0.0152 -0.02904,-0.030357 -0.04314,-0.045925 -0.03186,-0.03516 -0.0625,-0.071382 -0.09221,-0.1083385 -0.01407,-0.017514 -0.02796,-0.035158 -0.04154,-0.053063 -0.02802,-0.03692 -0.05497,-0.074624 -0.08083,-0.113121 -0.01305,-0.019447 -0.02566,-0.039183 -0.03815,-0.059022 -0.02429,-0.038543 -0.04774,-0.077618 -0.06983,-0.1175451 -0.01196,-0.02162 -0.02321,-0.043645 -0.03451,-0.065659 -0.02034,-0.039581 -0.04008,-0.079495 -0.05824,-0.120257 -0.0108,-0.024291 -0.02057,-0.049101 -0.03058,-0.073796 -0.01618,-0.039837 -0.0321,-0.079805 -0.04618,-0.120614 -0.0096,-0.027812 -0.01766,-0.056252 -0.02623,-0.0845 -0.01183,-0.038889 -0.02387,-0.077693 -0.03376,-0.1173319 -0.0083,-0.033216 -0.01447,-0.067157 -0.02134,-0.1008803 -0.0074,-0.036052 -0.01552,-0.071841 -0.02127,-0.1084092 -0.0065,-0.04175 -0.01037,-0.084286 -0.01474,-0.1266809 -0.0031,-0.029784 -0.0075,-0.059189 -0.0095,-0.089247 -0.0048,-0.07302 -0.0068,-0.1467914 -0.005,-0.2213156 2e-6,-1.439e-4 -5e-6,-2.878e-4 0,-4.268e-4 v -3.6e-5 c 0,-1.28e-5 -2e-6,-1.86e-5 0,-3.72e-5 l 1.43e-4,-0.00704 v -3.59e-5 z m 4.851355,2.5230077 7.32e-4,0.00192 c -7.4e-5,-1.439e-4 -1.44e-4,-4.268e-4 -2.88e-4,-5.792e-4 -1.44e-4,-4.268e-4 -2.88e-4,-8.536e-4 -4.27e-4,-0.00128 z m 0.08475,5.0116489 h 0.286762 C 10.75953,10.735237 9.920128,11.491197 8.889203,11.491197 H 8.602407 C 8.736267,10.499255 9.575706,9.7432951 10.606629,9.7432951 Z M 5.106637,10.912608 h 0.286796 c 1.030926,0 1.870363,0.755961 2.004225,1.747903 H 7.11086 c -1.030924,0 -1.870363,-0.75596 -2.004223,-1.747903 z"
     id="path4" />
</svg>
